<svg width="218" height="122" viewBox="0 0 218 122" fill="none" xmlns="http://www.w3.org/2000/svg">
<g clip-path="url(#clip0_22_49)">
<path d="M203.234 114.897C203.174 117.095 202.805 119.273 202.137 121.368C202.122 121.416 202.105 121.464 202.089 121.513H197.996C198 121.469 198.005 121.421 198.009 121.368C198.282 118.24 196.723 99.4302 194.842 96.1747C195.006 96.4388 203.551 104.959 203.234 114.897Z" fill="#F1F1F1"/>
<path d="M202.926 121.368C202.892 121.416 202.857 121.465 202.82 121.513H199.749C199.773 121.471 199.8 121.423 199.831 121.368C200.338 120.455 201.84 117.726 203.233 114.897C204.73 111.857 206.105 108.702 205.989 107.56C206.025 107.818 207.062 115.669 202.926 121.368Z" fill="#F1F1F1"/>
<path d="M11.3278 116.6C11.3716 118.232 11.6459 119.849 12.1424 121.405C12.1534 121.441 12.1657 121.477 12.1776 121.513H15.2175C15.2143 121.48 15.211 121.444 15.2079 121.405C15.0052 119.082 16.1631 105.112 17.5604 102.694C17.438 102.891 11.0921 109.218 11.3278 116.6Z" fill="#F1F1F1"/>
<path d="M11.5559 121.405C11.5813 121.441 11.6077 121.477 11.6348 121.513H13.9155C13.8982 121.482 13.8782 121.446 13.8549 121.405C13.4782 120.727 12.3631 118.7 11.328 116.6C10.2161 114.342 9.19507 111.998 9.28105 111.15C9.2544 111.341 8.48464 117.173 11.5559 121.405Z" fill="#F1F1F1"/>
<path d="M159.846 85.5766C136.885 75.8766 116.113 76.2453 96.5474 82.1658C66.4007 76.9172 45.7575 77.7292 32.5161 85.5766V61.2132H159.846V85.5766Z" fill="#CBCBCB"/>
<path d="M159.846 78.8767C138.693 69.322 117.566 68.7051 96.1198 78.8767C74.1541 72.5719 52.9195 72.6378 32.3939 78.8767V4.81178C54.2168 -1.68131 75.4449 -1.52528 96.1198 4.81178C117.959 -1.50339 139.22 -1.70368 159.846 4.81178V78.8767Z" fill="#E5E5E5"/>
<path d="M38.1262 14.0032L37.4146 12.1877C37.6935 12.0791 44.3573 9.5109 54.137 8.20089C63.1786 6.9895 76.6496 6.7003 89.4796 12.2L88.7072 13.9907C76.3062 8.67496 63.2336 8.95487 54.4505 10.1255C44.8906 11.3999 38.1927 13.9772 38.1262 14.0032Z" fill="white"/>
<path d="M38.1262 20.8249L37.4146 19.0094C37.6935 18.9008 44.3573 16.3327 54.137 15.0227C63.1786 13.8114 76.6496 13.5222 89.4796 19.0218L88.7072 20.8124C76.3062 15.4967 63.2336 15.7764 54.4505 16.9472C44.8906 18.2217 38.1927 20.799 38.1262 20.8249Z" fill="white"/>
<path d="M38.1262 27.6467L37.4146 25.8312C37.6935 25.7226 44.3573 23.1544 54.137 21.8444C63.1786 20.633 76.6496 20.3438 89.4796 25.8436L88.7072 27.6342C76.3062 22.3185 63.2336 22.5982 54.4505 23.769C44.8906 25.0434 38.1927 27.6208 38.1262 27.6467Z" fill="white"/>
<path d="M38.1262 34.4685L37.4146 32.653C37.6935 32.5444 44.3573 29.9762 54.137 28.6662C63.1786 27.455 76.6496 27.1655 89.4796 32.6653L88.7072 34.456C76.3062 29.1403 63.2336 29.4201 54.4505 30.5908C44.8906 31.8652 38.1927 34.4425 38.1262 34.4685Z" fill="white"/>
<path d="M38.1262 41.2902L37.4146 39.4747C37.6935 39.3661 44.3573 36.798 54.137 35.488C63.1786 34.2766 76.6496 33.9874 89.4796 39.4871L88.7072 41.2777C76.3062 35.9619 63.2336 36.2418 54.4505 37.4125C44.8906 38.687 38.1927 41.2643 38.1262 41.2902Z" fill="white"/>
<path d="M38.1262 48.112L37.4146 46.2965C37.6935 46.1879 44.3573 43.6197 54.137 42.3097C63.1786 41.0986 76.6496 40.8091 89.4796 46.3089L88.7072 48.0995C76.3062 42.7837 63.2336 43.0637 54.4505 44.2343C44.8906 45.5087 38.1927 48.0861 38.1262 48.112Z" fill="white"/>
<path d="M101.913 62.4864L101.202 60.6709C101.48 60.5623 108.144 57.9942 117.924 56.6842C126.966 55.473 140.437 55.1836 153.267 60.6833L152.494 62.4739C140.093 57.1581 127.021 57.4381 118.238 58.6087C108.678 59.8832 101.98 62.4605 101.913 62.4864Z" fill="#6FB1FF"/>
<path d="M101.313 49.3942V12.1352L101.999 11.9216C119.386 6.50722 136.689 6.5083 153.427 11.9248L154.102 12.1434V49.3446L152.78 48.8468C135.362 42.2934 118.501 42.2895 102.665 48.8353L101.313 49.3942ZM127.112 41.9754C135.296 41.9754 143.641 43.4961 152.147 46.5375V13.5631C136.234 8.56016 119.795 8.56289 103.268 13.5711V46.4923C110.862 43.5099 118.95 41.9776 127.112 41.9754Z" fill="white"/>
<path d="M152.188 61.521L152.444 55.3203L161.229 37.9079C161.477 37.4128 161.88 37.0125 162.378 36.7685C162.683 36.6168 163.016 36.5273 163.356 36.5051C163.696 36.483 164.037 36.5287 164.359 36.6395C164.732 36.7678 165.071 36.9803 165.348 37.2604C165.625 37.5404 165.834 37.8806 165.957 38.2542C166.01 38.4156 166.048 38.5817 166.069 38.7501C166.131 39.2501 166.042 39.7573 165.814 40.2068L157.017 57.6428L152.188 61.521Z" fill="#6FB1FF"/>
<path d="M163.473 36.622L153.936 55.5232L153.209 55.1586L162.433 36.8778C162.756 36.7165 163.111 36.6291 163.473 36.622Z" fill="#3F3D56"/>
<path d="M165.947 38.7656L156.775 56.9463L156.048 56.5818L165.564 37.7198C165.681 37.8978 165.774 38.0903 165.841 38.2924C165.892 38.4464 165.927 38.6048 165.947 38.7656Z" fill="#3F3D56"/>
<path d="M165.034 37.1432L155.393 56.2533L154.666 55.8888L164.319 36.7547C164.422 36.7898 164.522 36.8319 164.619 36.8808C164.766 36.9544 164.905 37.0423 165.034 37.1432Z" fill="#3F3D56"/>
<path d="M153.291 60.4792L152.32 61.2581L152.402 59.2044C152.735 59.3196 153.096 59.8196 153.291 60.4792Z" fill="#3F3D56"/>
<path d="M57.5976 82.8611L56.4361 79.3489L57.6735 67.8004C57.7075 67.4725 57.8486 67.1648 58.075 66.9246C58.2132 66.7762 58.3797 66.6569 58.5647 66.5734C58.7498 66.49 58.9496 66.4442 59.1526 66.4386C59.3877 66.4322 59.6212 66.4799 59.8347 66.5782C60.0483 66.6765 60.2362 66.8226 60.3837 67.0052C60.4472 67.0841 60.5029 67.1689 60.5501 67.2585C60.6901 67.5243 60.7473 67.8258 60.7144 68.1242L59.4754 79.6884L57.5976 82.8611Z" fill="#6FB1FF"/>
<path d="M58.6544 66.6142L57.3113 79.1501L56.829 79.0988L58.1281 66.9743C58.2745 66.8167 58.4543 66.6937 58.6544 66.6142Z" fill="#3F3D56"/>
<path d="M60.4857 67.2924L59.1938 79.3506L58.7115 79.2992L60.0519 66.7893C60.1547 66.8641 60.2472 66.952 60.327 67.0507C60.3876 67.126 60.4408 67.207 60.4857 67.2924Z" fill="#3F3D56"/>
<path d="M59.6351 66.5785L58.2771 79.253L57.7949 79.2016L59.1546 66.5112C59.2194 66.5093 59.2842 66.5118 59.3486 66.5187C59.4459 66.5292 59.5418 66.5492 59.6351 66.5785Z" fill="#3F3D56"/>
<path d="M57.9936 82.0494L57.6163 82.6867L57.2297 81.5242C57.4397 81.5188 57.746 81.7223 57.9936 82.0494Z" fill="#3F3D56"/>
<path d="M183.403 78.7424C183.271 78.9731 183.095 79.1756 182.884 79.3382C182.673 79.5009 182.432 79.6205 182.175 79.6904C181.655 79.8314 181.101 79.7611 180.634 79.4947C180.166 79.2283 179.824 78.7878 179.683 78.27C179.541 77.7522 179.612 77.1996 179.879 76.7337C179.884 76.7258 179.888 76.718 179.893 76.7101C179.95 76.6153 180.014 76.5249 180.084 76.4397L178.377 64.3078L178.326 63.9443L177.979 61.4687L177.928 61.1119L178.117 61.1208L181.425 61.2715L182.312 61.3114L182.423 63.5698L183.052 76.2669C183.381 76.5804 183.594 76.995 183.658 77.444C183.722 77.893 183.632 78.3504 183.403 78.7424Z" fill="#FFB8B8"/>
<path d="M178.335 64.0542L182.536 63.6702C182.754 63.6496 182.955 63.544 183.095 63.3764C183.235 63.2088 183.303 62.9928 183.284 62.7754L182.506 54.0672C182.431 53.2285 182.025 52.4538 181.377 51.9137C180.728 51.3736 179.892 51.1122 179.05 51.1871C178.209 51.2619 177.432 51.667 176.89 52.313C176.348 52.959 176.086 53.7931 176.161 54.6319C176.167 54.6918 176.174 54.7516 176.182 54.8112L177.442 63.3528C177.471 63.5485 177.57 63.7273 177.72 63.8567C177.87 63.9861 178.061 64.0575 178.26 64.0578C178.285 64.0582 178.31 64.057 178.335 64.0542Z" fill="#CBCBCB"/>
<path d="M181.52 57.0191C181.944 55.8194 181.964 54.514 181.576 53.3021C181.187 52.0902 180.412 51.0382 179.368 50.3064C177.784 49.226 175.616 48.8381 173.282 51.6085C170.457 54.9905 168.442 58.9697 167.39 63.244L176.95 64.7954C176.95 64.7954 180.201 60.8337 181.52 57.0191Z" fill="#CBCBCB"/>
<path d="M166.058 119.431H163.332L162.036 108.951H166.058L166.058 119.431Z" fill="#FFB8B8"/>
<path d="M158.076 121.954H166.643V118.654H161.386C160.508 118.654 159.666 119.002 159.046 119.621C158.425 120.24 158.076 121.079 158.076 121.954Z" fill="#2F2E41"/>
<path d="M188.466 117.061L185.879 117.914L181.348 108.369L185.167 107.11L188.466 117.061Z" fill="#FFB8B8"/>
<path d="M181.682 121.954L189.815 119.274L188.777 116.141L183.786 117.786C182.952 118.06 182.262 118.654 181.868 119.435C181.473 120.217 181.406 121.123 181.682 121.954Z" fill="#2F2E41"/>
<path d="M175.518 47.5584C178.534 47.5584 180.979 45.1213 180.979 42.115C180.979 39.1087 178.534 36.6716 175.518 36.6716C172.503 36.6716 170.058 39.1087 170.058 42.115C170.058 45.1213 172.503 47.5584 175.518 47.5584Z" fill="#FFB8B8"/>
<path d="M170.737 116.514L173.269 99.8594C173.296 99.6817 173.384 99.5188 173.518 99.3987C173.652 99.2785 173.824 99.2086 174.004 99.2007C174.184 99.1929 174.361 99.2476 174.505 99.3557C174.65 99.4637 174.752 99.6182 174.794 99.793L178.649 115.664C178.709 115.907 178.859 116.119 179.068 116.258C179.278 116.397 179.531 116.453 179.78 116.414L190.412 114.711C190.553 114.688 190.688 114.636 190.807 114.557C190.926 114.479 191.027 114.376 191.102 114.255C191.178 114.134 191.227 113.999 191.246 113.857C191.264 113.716 191.253 113.573 191.211 113.437L177.347 67.8698C177.308 67.7403 177.303 67.6028 177.333 67.4709L177.795 65.4762C177.846 65.26 177.822 65.0331 177.728 64.8317C177.635 64.6303 177.476 64.4659 177.278 64.365C175.39 63.4046 170.608 61.4082 167 63.595C166.882 63.6663 166.781 63.7605 166.702 63.872C166.622 63.9835 166.566 64.11 166.537 64.2437L155.707 114.99C155.677 115.128 155.678 115.271 155.707 115.409C155.737 115.546 155.796 115.676 155.88 115.79C155.964 115.903 156.072 115.998 156.195 116.067C156.318 116.136 156.455 116.178 156.596 116.191L169.659 117.357C169.689 117.36 169.718 117.361 169.748 117.361C169.987 117.361 170.218 117.275 170.4 117.12C170.581 116.964 170.701 116.749 170.737 116.514L170.737 116.514Z" fill="#2F2E41"/>
<path d="M179.139 38.2691C178.728 38.0222 178.362 37.7057 178.06 37.3338C177.91 37.1459 177.812 36.9228 177.774 36.686C177.737 36.4492 177.761 36.2067 177.844 35.9819C178.12 35.375 178.94 35.184 179.575 35.3899C180.21 35.5958 180.701 36.0929 181.165 36.5718C181.574 36.9929 181.995 37.4344 182.188 37.9883C182.381 38.5421 182.282 39.2445 181.8 39.5807C181.326 39.9105 180.646 39.7755 180.19 39.4213C179.76 39.0341 179.417 38.5605 179.184 38.0317L179.139 38.2691Z" fill="#2F2E41"/>
<path d="M180.989 36.7181C181.019 35.1844 182.772 34.0845 184.287 34.3564C185.802 34.6284 186.966 35.9156 187.549 37.3354C188.78 40.3351 187.856 43.7579 186.669 46.7767C185.483 49.7956 184.015 52.858 184.188 56.0947C184.305 57.8441 184.894 59.5295 185.892 60.9728C186.891 62.4162 188.262 63.564 189.86 64.2949C188.151 65.0673 186.108 64.2694 184.672 63.0653C181.482 60.3914 180.251 55.6306 181.746 51.7525C182.483 49.8396 183.783 48.2031 184.798 46.421C185.812 44.6389 186.557 42.5385 186.033 40.557C185.509 38.5754 183.279 36.9712 181.373 37.7378L180.989 36.7181Z" fill="#2F2E41"/>
<path d="M175.191 44.5305C175.667 43.7287 176.147 42.6759 175.277 41.9749C175.088 41.8295 174.872 41.7232 174.641 41.6623C174.41 41.6014 174.169 41.5871 173.932 41.6203C172.951 41.7382 171.883 41.7868 170.934 41.4315C170.577 41.3093 170.25 41.1171 169.969 40.8661C169.689 40.6152 169.463 40.3107 169.303 39.9708C168.814 38.813 169.426 37.4061 170.451 36.6743C171.078 36.2428 171.819 36.0055 172.58 35.992C173.342 35.9786 174.091 36.1896 174.733 36.5987C176.06 36.0142 177.67 36.2742 178.876 37.0787C180.082 37.8832 180.907 39.1716 181.355 40.5472C181.768 41.7313 181.839 43.0072 181.56 44.2296C181.336 45.0799 180.909 45.8639 180.317 46.5151C179.724 47.1663 178.982 47.6655 178.155 47.9704C177.833 48.0971 177.483 48.1372 177.14 48.0866C176.798 48.0361 176.474 47.8966 176.203 47.6823C175.761 47.2876 175.422 46.7923 175.215 46.2386C175.034 45.632 174.937 44.9589 175.191 44.5305Z" fill="#2F2E41"/>
<path d="M158.992 49.3877C159.02 49.5073 159.037 49.6289 159.045 49.7512L168.596 55.2436L170.917 53.9114L173.391 57.141L169.512 59.8976C169.199 60.1204 168.821 60.2358 168.436 60.2264C168.051 60.217 167.68 60.0835 167.378 59.8457L157.529 52.1007C157.084 52.2649 156.6 52.2902 156.141 52.1733C155.681 52.0565 155.269 51.8029 154.957 51.4465C154.646 51.09 154.451 50.6475 154.398 50.1778C154.345 49.7081 154.437 49.2336 154.662 48.8172C154.886 48.4009 155.232 48.0625 155.654 47.8471C156.076 47.6317 156.554 47.5495 157.024 47.6115C157.494 47.6734 157.934 47.8766 158.285 48.1939C158.637 48.5112 158.883 48.9276 158.991 49.3877L158.992 49.3877Z" fill="#FFB8B8"/>
<path d="M168.915 55.5038L172.002 59.4918C172.09 59.6051 172.201 59.6983 172.328 59.7649C172.455 59.8315 172.595 59.8701 172.739 59.8779C172.882 59.8857 173.026 59.8627 173.159 59.8103C173.293 59.758 173.414 59.6775 173.514 59.5745L177.008 55.9573C177.302 55.7405 177.55 55.468 177.738 55.1555C177.926 54.843 178.05 54.4965 178.104 54.136C178.157 53.7754 178.139 53.4079 178.05 53.0544C177.961 52.701 177.803 52.3685 177.584 52.0761C177.366 51.7838 177.092 51.5372 176.778 51.3505C176.464 51.1639 176.116 51.0409 175.754 50.9885C175.392 50.9361 175.024 50.9554 174.669 51.0453C174.315 51.1352 173.982 51.2939 173.689 51.5124C173.659 51.5348 173.629 51.5578 173.6 51.5814L169.218 54.0242C169.092 54.0942 168.984 54.1903 168.899 54.306C168.814 54.4218 168.755 54.5543 168.726 54.6947C168.697 54.8351 168.699 54.9801 168.732 55.1197C168.764 55.2593 168.827 55.3903 168.914 55.5038H168.915Z" fill="#CBCBCB"/>
<path d="M50.969 119.091L53.9318 119.091L55.3415 107.698L50.9685 107.698L50.969 119.091Z" fill="#A0616A"/>
<path d="M50.2132 118.126L56.0482 118.126H56.0484C57.0346 118.126 57.9804 118.517 58.6777 119.212C59.375 119.907 59.7668 120.85 59.7669 121.833V121.953L50.2134 121.954L50.2132 118.126Z" fill="#2F2E41"/>
<path d="M27.8991 117.812L30.8287 118.254L33.9308 107.199L30.0901 106.547L27.8991 117.812Z" fill="#A0616A"/>
<path d="M27.2963 116.746L33.0657 117.615C34.0408 117.762 34.9176 118.289 35.5029 119.081C36.0882 119.872 36.3342 120.863 36.1868 121.835L36.1688 121.954L26.7225 120.53L27.2963 116.746Z" fill="#2F2E41"/>
<path d="M37.0343 62.6312L40.3241 63.4905L40.1052 68.8075L40.0781 78.4881C40.4022 78.7116 40.6506 79.0278 40.7905 79.3951C40.9303 79.7624 40.9551 80.1633 40.8614 80.5449C40.7677 80.9265 40.56 81.2707 40.2658 81.5321C39.9716 81.7934 39.6047 81.9596 39.2137 82.0086C38.8227 82.0576 38.426 81.9871 38.0761 81.8064C37.7261 81.6257 37.4395 81.3434 37.254 80.9968C37.0685 80.6502 36.993 80.2556 37.0373 79.8652C37.0817 79.4749 37.2439 79.1072 37.5025 78.8107L36.4916 69.0946L37.0343 62.6312Z" fill="#A0616A"/>
<path d="M36.4617 56.5411C36.4799 56.0272 36.6461 55.5294 36.9405 55.1072C37.2348 54.6851 37.645 54.3563 38.1218 54.1603C38.5681 53.9612 39.0631 53.8964 39.5459 53.9738C40.0287 54.0512 40.4783 54.2675 40.8395 54.596C41.0991 54.8273 41.305 55.1122 41.4428 55.431C41.5807 55.7497 41.6471 56.0946 41.6374 56.4415C41.6461 59.5563 40.9407 64.0964 40.9336 64.1418L40.9223 64.2141L36.1138 65.8283L36.4617 56.5411Z" fill="#CBCBCB"/>
<path d="M45.0596 65.3829L52.4143 63.485L55.814 74.8993L55.9349 117.422L50.3107 117.387L47.9597 82.9701L32.9759 114.772L26.9341 114.049L40.1053 79.9586C40.1053 79.9586 39.3803 73.9356 41.6762 70.9241L41.1928 67.7921L45.0596 65.3829Z" fill="#2F2E41"/>
<path d="M40.1004 68.2227C39.9976 68.0981 39.9229 67.9529 39.8814 67.797C39.8399 67.641 39.8326 67.478 39.86 67.319L36.5052 57.2859C36.3486 56.8169 36.332 56.3127 36.4573 55.8344C36.5827 55.3562 36.8447 54.9245 37.2114 54.5918L38.6678 53.2721L39.6547 49.3367L45.3271 50.7189L44.8598 52.5825L47.4269 52.1174L52.8341 64.123L41.5317 68.6267L40.975 68.6354C40.8077 68.6357 40.6423 68.5988 40.491 68.5274C40.3397 68.456 40.2063 68.3519 40.1004 68.2227Z" fill="#CBCBCB"/>
<path d="M47.9736 59.7516L51.2146 58.7248L53.8806 63.335L59.0485 71.531C59.4422 71.5472 59.8218 71.6821 60.1369 71.918C60.452 72.1539 60.6879 72.4796 60.8134 72.852C60.9388 73.2244 60.9478 73.626 60.8393 74.0037C60.7308 74.3813 60.5098 74.7173 60.2056 74.967C59.9014 75.2168 59.5284 75.3686 59.1357 75.4023C58.7431 75.4361 58.3495 75.3503 58.0069 75.1562C57.6643 74.962 57.3888 74.6688 57.217 74.3153C57.0452 73.9617 56.9851 73.5645 57.0447 73.1762L50.9806 65.5033L47.9736 59.7516Z" fill="#A0616A"/>
<path d="M44.2241 54.9094C43.9639 54.4655 43.8375 53.9563 43.8599 53.4426C43.8823 52.929 44.0527 52.4326 44.3506 52.0129C44.6212 51.607 45.0047 51.2885 45.4542 51.0967C45.9037 50.9049 46.3996 50.848 46.8811 50.933C47.2245 50.9901 47.5513 51.1212 47.8386 51.3172C48.126 51.5131 48.3671 51.7692 48.545 52.0675C50.2224 54.6953 52.0607 58.9084 52.079 58.9505L52.1082 59.0176L48.9099 62.9441L44.2241 54.9094Z" fill="#CBCBCB"/>
<path d="M43.8515 48.6044C46.3407 48.6044 48.3585 46.5928 48.3585 44.1115C48.3585 41.6301 46.3407 39.6186 43.8515 39.6186C41.3624 39.6186 39.3446 41.6301 39.3446 44.1115C39.3446 46.5928 41.3624 48.6044 43.8515 48.6044Z" fill="#A0616A"/>
<path d="M35.8868 42.2163C38.2844 42.2163 40.2281 40.2787 40.2281 37.8885C40.2281 35.4983 38.2844 33.5607 35.8868 33.5607C33.4891 33.5607 31.5455 35.4983 31.5455 37.8885C31.5455 40.2787 33.4891 42.2163 35.8868 42.2163Z" fill="#2F2E41"/>
<path d="M32.1421 41.4722C32.704 41.8771 33.355 42.1419 34.0406 42.2445C34.7263 42.3471 35.4266 42.2846 36.083 42.0621C36.7394 41.8396 37.3328 41.4636 37.8135 40.9656C38.2943 40.4677 38.6484 39.8621 38.8463 39.1997C38.7714 39.7933 38.5739 40.365 38.2662 40.8787C37.9585 41.3924 37.5473 41.8369 37.0586 42.1842C36.5699 42.5314 36.0143 42.7739 35.4268 42.8963C34.8393 43.0187 34.2328 43.0183 33.6455 42.8952C33.0582 42.7721 32.5028 42.529 32.0145 42.1812C31.5262 41.8333 31.1155 41.3883 30.8085 40.8743C30.5014 40.3603 30.3045 39.7883 30.2304 39.1946C30.1562 38.6009 30.2063 37.9983 30.3775 37.4249C30.2803 38.1953 30.3928 38.9776 30.7033 39.6897C31.0138 40.4018 31.5108 41.0175 32.1421 41.4722Z" fill="#2F2E41"/>
<path d="M49.275 41.477C48.5171 40.1244 48.2271 39.5594 47.2499 38.7369C46.3857 38.0094 45.3228 37.7958 44.4655 38.4851C43.4513 38.0482 42.3228 37.9492 41.2476 38.2026C40.1724 38.4561 39.2079 39.0485 38.4974 39.8919C37.7868 40.7353 37.3682 41.7847 37.3035 42.8842C37.2389 43.9838 37.5318 45.0747 38.1387 45.9951C38.7455 46.9154 39.634 47.6161 40.6722 47.993C41.7103 48.3699 42.8427 48.4029 43.9011 48.0871C44.9596 47.7713 45.8876 47.1236 46.5474 46.2401C47.2072 45.3567 47.5635 44.2846 47.5634 43.1832C47.5626 42.9898 47.5509 42.7966 47.5284 42.6045C48.2736 42.5002 48.5297 41.5814 49.275 41.477Z" fill="#2F2E41"/>
<path d="M93.3587 122H0.244395C0.179577 122 0.117414 121.974 0.0715813 121.929C0.0257485 121.883 0 121.821 0 121.756C0 121.692 0.0257485 121.63 0.0715813 121.584C0.117414 121.538 0.179577 121.513 0.244395 121.513H93.3587C93.4236 121.513 93.4857 121.538 93.5316 121.584C93.5774 121.63 93.6031 121.692 93.6031 121.756C93.6031 121.821 93.5774 121.883 93.5316 121.929C93.4857 121.974 93.4236 122 93.3587 122Z" fill="#CBCBCB"/>
<path d="M217.756 122H124.641C124.576 122 124.514 121.974 124.468 121.929C124.423 121.883 124.397 121.821 124.397 121.756C124.397 121.692 124.423 121.63 124.468 121.584C124.514 121.538 124.576 121.513 124.641 121.513H217.756C217.82 121.513 217.883 121.538 217.928 121.584C217.974 121.63 218 121.692 218 121.756C218 121.821 217.974 121.883 217.928 121.929C217.883 121.974 217.82 122 217.756 122Z" fill="#CBCBCB"/>
<path d="M96.3642 4.81178H95.8754V78.6423H96.3642V4.81178Z" fill="#CBCBCB"/>
</g>
<defs>
<clipPath id="clip0_22_49">
<rect width="218" height="122" fill="white"/>
</clipPath>
</defs>
</svg>
