<svg width="220" height="215" viewBox="0 0 220 215" fill="none" xmlns="http://www.w3.org/2000/svg">
<g clip-path="url(#clip0_22_355)">
<path d="M139.665 48.3528H80.3846C79.0337 48.3544 77.7386 48.8924 76.7834 49.8488C75.8281 50.8051 75.2908 52.1018 75.2891 53.4542V185.361L74.6097 185.568L60.0673 190.027C59.3781 190.237 58.6337 190.165 57.9974 189.827C57.3612 189.488 56.8852 188.91 56.6738 188.221L13.4167 46.7577C13.2062 46.0677 13.2779 45.3222 13.6162 44.6852C13.9544 44.0481 14.5315 43.5715 15.2205 43.3602L37.6304 36.4902L102.597 16.581L125.007 9.71104C125.348 9.60596 125.707 9.56924 126.062 9.60298C126.417 9.63673 126.762 9.74028 127.077 9.9077C127.393 10.0751 127.672 10.3031 127.899 10.5787C128.126 10.8542 128.296 11.1719 128.401 11.5136L139.458 47.6726L139.665 48.3528Z" fill="#F2F2F2"/>
<path d="M152.601 47.6726L139.274 4.09265C139.053 3.36653 138.69 2.69126 138.208 2.10544C137.725 1.51962 137.132 1.03472 136.462 0.678453C135.793 0.322188 135.059 0.101535 134.304 0.0291119C133.55 -0.0433112 132.788 0.0339146 132.063 0.256369L100.556 9.9117L35.5922 29.8243L4.08532 39.4831C2.62168 39.933 1.39615 40.946 0.677741 42.2997C-0.0406708 43.6534 -0.193271 45.2371 0.253441 46.7033L45.8 195.642C46.1629 196.825 46.8951 197.861 47.8892 198.598C48.8833 199.334 50.087 199.732 51.3236 199.733C51.8959 199.733 52.465 199.647 53.0118 199.478L74.6097 192.86L75.2891 192.649V191.938L74.6097 192.146L52.8114 198.828C51.5195 199.223 50.1241 199.088 48.9313 198.453C47.7386 197.819 46.8458 196.737 46.4489 195.444L0.905798 46.5027C0.709144 45.8622 0.640605 45.1893 0.704103 44.5223C0.767601 43.8553 0.961884 43.2074 1.27584 42.6157C1.58979 42.024 2.01725 41.5001 2.53373 41.074C3.0502 40.6479 3.64555 40.3281 4.28568 40.1327L35.7926 30.4739L100.756 10.5647L132.263 0.905959C132.749 0.757609 133.253 0.681968 133.761 0.681494C134.851 0.683943 135.911 1.03559 136.786 1.68492C137.661 2.33426 138.306 3.24716 138.626 4.28992L151.891 47.6726L152.101 48.3528H152.808L152.601 47.6726Z" fill="#3F3D56"/>
<path d="M41.6743 43.4714C41.0196 43.4709 40.3823 43.2604 39.8558 42.8707C39.3293 42.481 38.9415 41.9327 38.7491 41.3061L34.3737 26.9976C34.2561 26.6133 34.2153 26.2095 34.2536 25.8094C34.2919 25.4092 34.4086 25.0206 34.5969 24.6656C34.7853 24.3106 35.0417 23.9962 35.3514 23.7405C35.6611 23.4847 36.0181 23.2925 36.4021 23.1749L96.168 4.856C96.9433 4.61913 97.7808 4.69992 98.4967 5.08062C99.2126 5.46132 99.7484 6.11084 99.9864 6.88661L104.362 21.1952C104.598 21.9715 104.518 22.8099 104.137 23.5266C103.757 24.2433 103.108 24.7797 102.334 25.0182L42.5675 43.337C42.2781 43.426 41.9771 43.4712 41.6743 43.4714Z" fill="#6FB1FF"/>
<path d="M64.5945 15.2889C68.3467 15.2889 71.3885 12.2436 71.3885 8.48699C71.3885 4.73038 68.3467 1.68506 64.5945 1.68506C60.8423 1.68506 57.8006 4.73038 57.8006 8.48699C57.8006 12.2436 60.8423 15.2889 64.5945 15.2889Z" fill="#6FB1FF"/>
<path d="M64.5945 12.7942C66.9706 12.7942 68.8967 10.8658 68.8967 8.48699C68.8967 6.10819 66.9706 4.17979 64.5945 4.17979C62.2185 4.17979 60.2924 6.10819 60.2924 8.48699C60.2924 10.8658 62.2185 12.7942 64.5945 12.7942Z" fill="white"/>
<path d="M204.714 197.995H89.8962C89.1307 197.994 88.3967 197.689 87.8554 197.147C87.3141 196.606 87.0096 195.871 87.0088 195.104V57.3654C87.0096 56.5989 87.3141 55.8641 87.8554 55.3222C88.3967 54.7802 89.1307 54.4754 89.8962 54.4745H204.714C205.479 54.4754 206.213 54.7803 206.754 55.3222C207.296 55.8642 207.6 56.5989 207.601 57.3654V195.104C207.6 195.871 207.296 196.606 206.754 197.147C206.213 197.689 205.479 197.994 204.714 197.995Z" fill="#E6E6E6"/>
<path d="M151.891 47.6726H80.3846C78.8537 47.6748 77.3861 48.2846 76.3036 49.3684C75.221 50.4522 74.6119 51.9215 74.6097 53.4542V192.146L75.2891 191.938V53.4542C75.2908 52.1018 75.8281 50.8051 76.7834 49.8488C77.7386 48.8924 79.0337 48.3544 80.3846 48.3528H152.101L151.891 47.6726ZM214.225 47.6726H80.3846C78.8537 47.6748 77.3861 48.2846 76.3036 49.3684C75.221 50.4522 74.6119 51.9215 74.6097 53.4542V209.218C74.6119 210.751 75.221 212.22 76.3036 213.304C77.3861 214.388 78.8537 214.998 80.3846 215H214.225C215.756 214.998 217.224 214.388 218.306 213.304C219.389 212.22 219.998 210.751 220 209.218V53.4542C219.998 51.9215 219.389 50.4522 218.306 49.3684C217.224 48.2846 215.756 47.6748 214.225 47.6726ZM219.321 209.218C219.319 210.571 218.782 211.867 217.826 212.824C216.871 213.78 215.576 214.318 214.225 214.32H80.3846C79.0337 214.318 77.7386 213.78 76.7834 212.824C75.8281 211.867 75.2908 210.571 75.2891 209.218V53.4542C75.2908 52.1018 75.8281 50.8051 76.7834 49.8488C77.7386 48.8924 79.0337 48.3544 80.3846 48.3528H214.225C215.576 48.3544 216.871 48.8924 217.826 49.8488C218.782 50.8051 219.319 52.1018 219.321 53.4542V209.218Z" fill="#3F3D56"/>
<path d="M178.557 62.6368H116.053C115.242 62.6359 114.465 62.3132 113.892 61.7393C113.319 61.1655 112.996 60.3875 112.996 59.576V44.6117C112.996 43.8002 113.319 43.0222 113.892 42.4484C114.465 41.8746 115.242 41.5518 116.053 41.5509H178.557C179.368 41.5518 180.145 41.8746 180.718 42.4484C181.291 43.0222 181.613 43.8002 181.614 44.6117V59.576C181.613 60.3875 181.291 61.1655 180.718 61.7393C180.145 62.3132 179.368 62.6359 178.557 62.6368Z" fill="#6FB1FF"/>
<path d="M147.305 42.5712C151.057 42.5712 154.099 39.5258 154.099 35.7692C154.099 32.0126 151.057 28.9673 147.305 28.9673C143.553 28.9673 140.511 32.0126 140.511 35.7692C140.511 39.5258 143.553 42.5712 147.305 42.5712Z" fill="#6FB1FF"/>
<path d="M147.305 39.9122C149.59 39.9122 151.443 38.0574 151.443 35.7692C151.443 33.4811 149.59 31.6262 147.305 31.6262C145.019 31.6262 143.167 33.4811 143.167 35.7692C143.167 38.0574 145.019 39.9122 147.305 39.9122Z" fill="white"/>
</g>
<defs>
<clipPath id="clip0_22_355">
<rect width="220" height="215" fill="white"/>
</clipPath>
</defs>
</svg>
